# xmcd
#
# Track frame offsets: 
#        150
#        46158
#        59096
#        79321
#        122157
#        149227
#        162334
#
# Disc length: 2784 seconds
#
# Revision: 3
# Processed by: cddbd v1.5.2PL0 Copyright (c) Steve Scherf et al.
# Submitted via: ExactAudioCopy v0.99pb4
#
DISCID=6a0ade07
DTITLE=TKKG - 155 - Gefangen im Spukhaus
DYEAR=2007
DGENRE=Hoerspiel
TTITLE0=Ein Tiger!
TTITLE1=Rettender Hechtsprung
TTITLE2=Der Teufel persönlich
TTITLE3=Heimliches Nachtmahl
TTITLE4=Hände hoch!
TTITLE5=Umtauschaktion
TTITLE6=Ein Skelett!!
EXTD=
EXTT0=
EXTT1=
EXTT2=
EXTT3=
EXTT4=
EXTT5=
EXTT6=
PLAYORDER=
